<?xml version="1.0" encoding="UTF-8"?>
<!DOCTYPE svg PUBLIC "-//W3C//DTD SVG 1.1//EN" "http://www.w3.org/Graphics/SVG/1.1/DTD/svg11.dtd">
<!-- Creator: CorelDRAW 2018 (64-Bit) -->
<svg xmlns="http://www.w3.org/2000/svg" xml:space="preserve" width="76.8799mm" height="76.8798mm" version="1.1" style="shape-rendering:geometricPrecision; text-rendering:geometricPrecision; image-rendering:optimizeQuality; fill-rule:evenodd; clip-rule:evenodd"
viewBox="0 0 764.25 764.25"
 xmlns:xlink="http://www.w3.org/1999/xlink">
 <defs>
  <style type="text/css">
   <![CDATA[
    .fil1 {fill:white}
    .fil0 {fill:#2B2A29;fill-rule:nonzero}
   ]]>
  </style>
 </defs>
 <g id="Layer_x0020_1">
  <metadata id="CorelCorpID_0Corel-Layer"/>
  <g id="_2298333736880">
   <path class="fil0" d="M382.13 0c105.52,0 201.06,42.77 270.2,111.92 69.15,69.15 111.92,164.69 111.92,270.2 0,105.52 -42.77,201.06 -111.92,270.2 -69.15,69.15 -164.68,111.92 -270.2,111.92 -105.52,0 -201.06,-42.77 -270.2,-111.92 -69.15,-69.15 -111.92,-164.69 -111.92,-270.2 0,-105.52 42.78,-201.06 111.92,-270.2 69.15,-69.15 164.69,-111.92 270.2,-111.92zm259.31 122.81c-66.36,-66.36 -158.05,-107.41 -259.31,-107.41 -101.27,0 -192.95,41.05 -259.31,107.41 -66.36,66.36 -107.41,158.05 -107.41,259.31 0,101.27 41.05,192.95 107.41,259.31 66.36,66.36 158.05,107.41 259.31,107.41 101.27,0 192.95,-41.05 259.31,-107.41 66.36,-66.36 107.41,-158.05 107.41,-259.31 0,-101.27 -41.05,-192.95 -107.41,-259.31z"/>
   <path class="fil1" d="M298.55 459.95c-41.73,-362.94 70.06,-351.79 81.49,-51.34 0,0 -52.15,4.07 -81.49,51.34z"/>
   <path class="fil0" d="M290.91 460.82c-15.36,-133.67 -9.93,-217.56 3.72,-255.44 6.27,-17.41 14.93,-26.55 24.89,-27.68 10.13,-1.14 20.14,6.04 29,21.24 18.28,31.38 35.13,102.53 39.18,209.38l0.28 7.34 -7.35 0.6c-0.14,0.01 -48.3,3.78 -75.56,47.71l-11.64 18.76 -2.52 -21.92zm18.16 -250.26c-12.33,34.21 -17.44,109.36 -4.99,229.26 23.85,-26.61 54.25,-35.17 68,-37.79 -4.38,-100.27 -19.99,-166.43 -36.86,-195.38 -5.51,-9.45 -10.33,-14.08 -14.03,-13.66 -3.87,0.44 -8.04,6.23 -12.13,17.57z"/>
   <path class="fil1" d="M470.32 463.21c41.73,-362.94 -70.06,-351.79 -81.49,-51.34 0,0 52.15,4.07 81.49,51.34z"/>
   <path class="fil0" d="M464.79 443.08c12.45,-119.91 7.34,-195.05 -4.99,-229.26 -4.09,-11.35 -8.26,-17.14 -12.13,-17.57 -3.7,-0.42 -8.52,4.21 -14.02,13.67 -16.87,28.94 -32.47,95.11 -36.86,195.38 13.75,2.62 44.15,11.18 68,37.79zm9.45 -234.44c13.65,37.87 19.08,121.77 3.72,255.44l-2.52 21.92 -11.64 -18.76c-27.26,-43.93 -75.42,-47.7 -75.56,-47.71l-7.35 -0.6 0.28 -7.34c4.06,-106.85 20.9,-178.01 39.18,-209.39 8.86,-15.2 18.87,-22.38 29,-21.24 9.95,1.12 18.61,10.26 24.89,27.67z"/>
   <path class="fil1" d="M290.4 593.58l176.01 0c0,0 45.47,-10.12 27.71,-78.23 -34.24,-158.56 -194.2,-159.77 -226.94,18.75 0,0 -8.96,56.22 23.22,59.48z"/>
   <path class="fil0" d="M290.69 585.88l174.72 0c5.28,-1.58 35.72,-13.23 21.28,-68.6l-0.09 -0.3c-10.26,-47.51 -32.03,-80.09 -58.01,-97.16 -14.61,-9.6 -30.59,-14.27 -46.54,-13.89 -15.97,0.38 -32.03,5.84 -46.79,16.49 -27.31,19.7 -50.21,57.03 -60.49,112.82 -0,0.14 -7.54,47.64 15.92,50.64zm175.72 15.4c-50.97,0 -129.1,4.75 -176.76,-0.06 -40.35,-4.08 -30.11,-68.08 -30.08,-68.26l0.06 -0.24c11.03,-60.16 36.32,-100.86 66.67,-122.75 17.35,-12.51 36.36,-18.93 55.39,-19.38 19.05,-0.46 38.04,5.06 55.32,16.41 29.18,19.16 53.47,55.01 64.63,106.72 19.52,75.51 -33.3,87.31 -33.45,87.34l-0.88 0.21 -0.9 0z"/>
   <path class="fil0" d="M377.97 539.89c-29.2,-17.15 -40.04,-39.69 -40.41,-57.09 -0.17,-8 1.85,-15.09 5.36,-20.39 3.96,-5.99 9.79,-9.8 16.67,-10.42 6.98,-0.63 14.73,2.14 22.13,9.48 8.85,-8.21 17.54,-11.25 24.89,-10.48 6.53,0.68 11.86,4.15 15.44,9.67 3.13,4.82 4.83,11.22 4.63,18.54 -0.48,17.17 -11.7,40.75 -40.5,60.44l-4 2.73 -4.21 -2.47zm-25.07 -57.39c0.26,12.19 8.03,28.12 28.64,41.57 21.13,-15.73 29.46,-32.93 29.81,-45.3 0.11,-4.12 -0.68,-7.48 -2.16,-9.76 -1.03,-1.59 -2.46,-2.58 -4.13,-2.75 -4.31,-0.45 -10.45,2.89 -17.68,11.62l-6.34 7.65 -5.81 -8.08c-5.45,-7.58 -10.45,-10.52 -14.24,-10.2 -2,0.18 -3.84,1.51 -5.24,3.63 -1.86,2.82 -2.93,6.84 -2.83,11.61z"/>
  </g>
 </g>
</svg>
