<?xml version="1.0" encoding="UTF-8"?>
<!DOCTYPE svg PUBLIC "-//W3C//DTD SVG 1.1//EN" "http://www.w3.org/Graphics/SVG/1.1/DTD/svg11.dtd">
<!-- Creator: CorelDRAW 2018 (64-Bit) -->
<svg xmlns="http://www.w3.org/2000/svg" xml:space="preserve" width="12.6829mm" height="11.3522mm" version="1.1" style="shape-rendering:geometricPrecision; text-rendering:geometricPrecision; image-rendering:optimizeQuality; fill-rule:evenodd; clip-rule:evenodd"
viewBox="0 0 347.76 311.27"
 xmlns:xlink="http://www.w3.org/1999/xlink">
 <defs>
  <style type="text/css">
   <![CDATA[
    .fil0 {fill:#2B2A2A;fill-rule:nonzero}
   ]]>
  </style>
 </defs>
 <g id="Layer_x0020_1">
  <metadata id="CorelCorpID_0Corel-Layer"/>
  <path class="fil0" d="M5.56 110.22l341.84 0 0.24 5.25c0.02,0.55 10.46,190.91 -180.53,195.77l-0.13 0.02c-0.49,0 -171.73,1.86 -166.88,-195.69l0.13 -5.35 5.33 0zm331.26 10.97l-325.86 0c-1.38,180.8 155.56,179.11 156.02,179.11 161.51,-4.17 169.82,-149.52 169.84,-179.11z"/>
  <path class="fil0" d="M328.85 17.2c-21.38,11.32 -91.68,42.47 -187.3,22.24 -90.87,-19.22 -121.3,48.68 -128.68,70.78l285.99 0c7.27,-6.43 39.28,-38.26 30,-93.02zm-185.07 11.53c111,23.48 185.86,-24.55 186.07,-24.68l6.51 -4.05 1.71 7.48c16.73,73.01 -33.71,112.38 -33.85,112.49l-1.53 1.22 -302.69 0 0.21 -10.44c0.07,-0.31 25.13,-107.06 143.56,-82.01z"/>
  <g id="_3032224221776">
   <path class="fil0" d="M100.55 163.89c10.21,2.25 47.42,13.31 69.59,58.51 0.01,0.01 0.31,0.67 0.79,1.82 0.99,-2.55 1.7,-4.09 1.71,-4.11l0.03 -0.05c0.4,-0.81 0.8,-1.6 1.2,-2.39 -27.35,-53.16 -75.1,-59.68 -75.24,-59.69l-2.64 -0.37 -0.43 2.64c-12.36,75.68 45.73,96.41 71.17,101.82 -0.72,-1.86 -1.18,-3.85 -1.45,-5.92 -24.69,-5.84 -74.14,-25.9 -64.73,-92.25z"/>
   <path class="fil0" d="M112.89 187.86l52.22 60.31c0.17,-2.43 0.51,-4.88 0.95,-7.25l-49.04 -56.63 -4.13 3.58z"/>
   <path class="fil0" d="M247.2 163.89c-10.21,2.25 -47.42,13.31 -69.59,58.51 -0.02,0.06 -10.12,21.84 -6.37,35.81 13.61,-1.7 87.26,-14.6 75.96,-94.32zm-74.53 56.16c27.12,-55.36 76.3,-62.07 76.44,-62.09l2.64 -0.37 0.43 2.64c15.71,96.16 -82.35,103.61 -82.63,103.64l-2.04 0.18 -0.74 -1.91c-6.23,-15.96 5.84,-41.97 5.87,-42.04l0.03 -0.05z"/>
   <polygon class="fil0" points="234.87,187.86 178.65,252.79 174.51,249.21 230.74,184.29 "/>
  </g>
 </g>
</svg>
