<?xml version="1.0" encoding="UTF-8"?>
<!DOCTYPE svg PUBLIC "-//W3C//DTD SVG 1.1//EN" "http://www.w3.org/Graphics/SVG/1.1/DTD/svg11.dtd">
<!-- Creator: CorelDRAW 2018 (64-Bit) -->
<svg xmlns="http://www.w3.org/2000/svg" xml:space="preserve" width="10.9246mm" height="11.9657mm" version="1.1" style="shape-rendering:geometricPrecision; text-rendering:geometricPrecision; image-rendering:optimizeQuality; fill-rule:evenodd; clip-rule:evenodd"
viewBox="0 0 1211.67 1327.14"
 xmlns:xlink="http://www.w3.org/1999/xlink">
 <defs>
  <style type="text/css">
   <![CDATA[
    .fil0 {fill:#2B2A2A;fill-rule:nonzero}
   ]]>
  </style>
 </defs>
 <g id="Layer_x0020_1">
  <metadata id="CorelCorpID_0Corel-Layer"/>
  <path class="fil0" d="M55.46 345.44l0 241.01 1100.76 0 0 -239.61 -1100.76 -1.4zm-55.46 268.74l0 -324.04c403.89,0.49 807.78,0.9 1211.67,1.54l0 350.23 -1211.67 0 0 -27.73z"/>
  <path class="fil0" d="M139.02 1271.68l929.11 0 0 -629.78 -927.08 0 -2.03 629.78zm956.84 55.46l-1012.25 0 2.4 -740.69 1037.58 0 0 740.69 -27.73 0z"/>
  <path class="fil0" d="M500.87 290.67l230.94 0 0 1036.47 -258.67 0 0 -1036.47 27.73 0zm175.48 55.46l-147.76 0 0 925.56 147.76 0 0 -925.56z"/>
  <path class="fil0" d="M630.22 291.21c147.93,11.42 229.48,-18.15 266.29,-60.89 29.67,-34.45 28.48,-78.87 9.55,-114.27 -19.22,-35.95 -56.21,-62.54 -97.66,-60.65 -44.41,2.09 -95.26,36.99 -138.92,127.08 -3.66,9.35 -19.88,51.23 -39.26,108.73zm308.1 -24.71c-50.04,58.11 -157.16,97.89 -348.25,76.48l-33.7 -3.77 10.4 -32.19c3.06,-9.48 33.07,-7.31 36.05,-16.18 10.24,-30.6 -7.16,-68.69 0.26,-88.9 9.32,-25.39 15.38,-40.64 15.41,-40.72l0.98 -2.38c54.16,-112.05 123.41,-155.72 186.34,-158.68 64.14,-2.99 120.42,36.46 148.99,89.88 28.87,53.99 30.08,122.41 -16.47,176.45z"/>
  <path class="fil0" d="M628.13 342.97c-191.09,21.42 -298.21,-18.37 -348.25,-76.47 -46.55,-54.04 -45.34,-122.45 -16.47,-176.45 28.57,-53.43 84.85,-92.87 148.88,-89.87 63,2.95 132.3,46.61 186.45,158.66l0.98 2.38c0.06,0.17 24.8,62.6 51.71,145.79l10.4 32.19 -33.7 3.77zm-306.44 -112.65c36.81,42.75 118.35,72.31 266.28,60.88 -19.39,-57.5 -35.6,-99.4 -39.25,-108.74 -43.65,-90.08 -94.46,-124.98 -138.81,-127.05 -41.49,-1.94 -78.53,24.66 -97.77,60.64 -18.93,35.43 -20.12,79.82 9.55,114.27z"/>
 </g>
</svg>
