<?xml version="1.0" encoding="UTF-8"?>
<!DOCTYPE svg PUBLIC "-//W3C//DTD SVG 1.1//EN" "http://www.w3.org/Graphics/SVG/1.1/DTD/svg11.dtd">
<!-- Creator: CorelDRAW 2018 (64-Bit) -->
<svg xmlns="http://www.w3.org/2000/svg" xml:space="preserve" width="76.8799mm" height="76.8798mm" version="1.1" style="shape-rendering:geometricPrecision; text-rendering:geometricPrecision; image-rendering:optimizeQuality; fill-rule:evenodd; clip-rule:evenodd"
viewBox="0 0 2149.93 2149.93"
 xmlns:xlink="http://www.w3.org/1999/xlink">
 <defs>
  <style type="text/css">
   <![CDATA[
    .fil1 {fill:#2B2A29}
    .fil0 {fill:#2B2A29;fill-rule:nonzero}
   ]]>
  </style>
 </defs>
 <g id="Layer_x0020_1">
  <metadata id="CorelCorpID_0Corel-Layer"/>
  <g id="_2243122670832">
   <path class="fil0" d="M1074.97 0c296.84,0 565.6,120.33 760.12,314.85 194.52,194.52 314.85,463.28 314.85,760.12 0,296.84 -120.33,565.6 -314.85,760.12 -194.52,194.52 -463.28,314.85 -760.12,314.85 -296.84,0 -565.6,-120.33 -760.12,-314.85 -194.52,-194.52 -314.85,-463.28 -314.85,-760.12 0,-296.84 120.33,-565.6 314.85,-760.12 194.52,-194.52 463.28,-314.85 760.12,-314.85zm729.48 345.48c-186.69,-186.68 -444.61,-302.16 -729.48,-302.16 -284.87,0 -542.79,115.48 -729.48,302.16 -186.68,186.69 -302.16,444.61 -302.16,729.48 0,284.87 115.48,542.79 302.16,729.48 186.69,186.68 444.61,302.16 729.48,302.16 284.87,0 542.79,-115.48 729.48,-302.16 186.68,-186.69 302.16,-444.61 302.16,-729.48 0,-284.87 -115.48,-542.79 -302.16,-729.48z"/>
   <g>
    <g>
     <path class="fil0" d="M1060.42 1063.54c-1.07,-0.98 -379.02,-340.64 -0.76,-718.9l16.19 -16.19 15.28 17.22c0.99,1.11 348.66,386.87 -1.35,717.71l-14.55 13.75 -14.82 -13.57zm13.33 -671.17c-277.69,295.9 -59.53,561.5 1.25,625 254.71,-258.39 57.11,-550.43 -1.25,-625z"/>
     <path class="fil0" d="M1055.18 1089.53c0.57,-1.33 198.31,-469.44 679.31,-235.33l20.71 10.09 -11.4 20.03c-0.74,1.29 -251.86,455.77 -678.8,232.87l-17.77 -9.27 7.95 -18.39zm638.78 -206.48c-370.38,-165.95 -550.25,127.1 -590.38,205.19 327.32,156.41 538.91,-125.65 590.38,-205.19z"/>
     <path class="fil0" d="M1046.38 1088.24c-40.13,-78.09 -220.01,-371.14 -590.39,-205.19 51.47,79.54 263.06,361.6 590.39,205.19zm-630.92 -234.04c480.99,-234.11 678.74,233.99 679.31,235.33l7.94 18.39 -17.76 9.27c-426.94,222.89 -678.07,-231.58 -678.81,-232.87l-11.41 -20.03 20.72 -10.09z"/>
    </g>
    <rect class="fil1" x="1055.17" y="1089.53" width="39.22" height="731.95"/>
   </g>
  </g>
 </g>
</svg>
