<svg xmlns="http://www.w3.org/2000/svg" xmlns:xlink="http://www.w3.org/1999/xlink" viewBox="0 0 100 125" version="1.1" x="0px" y="0px"><title>i20 copy 6</title><desc>Created with Sketch.</desc><g stroke="none" stroke-width="1" fill="none" fill-rule="evenodd"><path d="M85.2044615,65.6248103 C80.7815929,68.3290295 74.8666556,69.8183499 68.5491847,69.8183499 C62.2317138,69.8183499 56.3167764,68.3290295 51.8939078,65.6248103 C47.7268939,63.0772448 45.4319804,59.7766864 45.4319804,56.3316957 C45.4319804,52.8867049 47.7268939,49.5861465 51.8939078,47.038581 C56.3167764,44.3343618 62.2317138,42.8450415 68.5491847,42.8450415 C74.8666556,42.8450415 80.7815929,44.3343618 85.2044615,47.038581 C89.3714754,49.5864243 91.6663889,52.8867049 91.6663889,56.3316957 C91.6663889,59.7766864 89.3714754,63.076967 85.2044615,65.6248103 L85.2044615,65.6248103 L85.2044615,65.6248103 Z M91.6663889,65.0584686 C91.6663889,67.7926853 90.2157124,70.4344097 87.5357669,72.6822779 L87.5357669,68.0932158 C89.1686807,67.0308043 90.5510181,65.8511804 91.6663889,64.5818417 L91.6663889,65.0584686 L91.6663889,65.0584686 Z M91.6663889,73.9313405 C91.6663889,76.665835 90.2157124,79.3072816 87.5357669,81.5554276 L87.5357669,76.9666432 C89.1686807,75.9036762 90.5510181,74.7240523 91.6663889,73.4549913 L91.6663889,73.9313405 L91.6663889,73.9313405 Z M86.4245632,73.5408175 C86.0361975,73.8177389 85.6328305,74.0896607 85.2044615,74.3515833 C84.0071395,75.0834668 82.6973081,75.7231357 81.3030253,76.2717011 L81.3030253,71.0946324 C83.1365114,70.4580188 84.8549879,69.6805836 86.4245632,68.7706594 L86.4245632,73.5408175 L86.4245632,73.5408175 Z M86.4245632,82.4136894 C86.0361975,82.6908886 85.6328305,82.9625326 85.2044615,83.2244552 C84.0071395,83.9566164 82.6973081,84.5962854 81.3030253,85.1448508 L81.3030253,79.9675043 C83.1365114,79.3311685 84.8549879,78.5537332 86.4245632,77.643809 L86.4245632,82.4136894 L86.4245632,82.4136894 Z M80.1918215,76.6819447 C78.5772425,77.2416203 76.8609884,77.6807504 75.0702836,77.9912801 L75.0702836,72.642559 C76.8432092,72.3611936 78.5569631,71.9631712 80.1918215,71.458491 L80.1918215,76.6819447 L80.1918215,76.6819447 Z M80.1918215,85.5550944 C78.5772425,86.11477 76.8609884,86.5539001 75.0702836,86.8644298 L75.0702836,81.5157087 C76.8432092,81.2343432 78.5569631,80.8363208 80.1918215,80.3316407 L80.1918215,85.5550944 L80.1918215,85.5550944 Z M73.9590799,78.1662655 C72.2992194,78.4009682 70.5849099,78.5281798 68.837542,78.5406788 L68.837542,73.1469614 C70.5771314,73.1352958 72.2903297,73.018361 73.9590799,72.8014347 L73.9590799,78.1662655 L73.9590799,78.1662655 Z M73.9590799,87.0391374 C72.2992194,87.2741178 70.5849099,87.4010517 68.837542,87.4138284 L68.837542,82.0201111 C70.5771314,82.0084454 72.2903297,81.8917885 73.9590799,81.6745843 L73.9590799,87.0391374 L73.9590799,87.0391374 Z M67.7263383,78.5329016 C65.9764703,78.4967935 64.2613273,78.3476393 62.6048004,78.0879387 L62.6048004,72.7278297 C64.2713282,72.9672542 65.9845265,73.105576 67.7263383,73.1389066 L67.7263383,78.5329016 L67.7263383,78.5329016 Z M67.7263383,87.4057735 C65.9764703,87.3696654 64.2613273,87.2205112 62.6048004,86.9610884 L62.6048004,81.6009794 C64.2713282,81.8404039 65.9845265,81.9790034 67.7263383,82.0120562 L67.7263383,87.4057735 L67.7263383,87.4057735 Z M61.4935967,77.8960102 C59.6984471,77.5563163 57.9805262,77.0871887 56.3720588,76.4944603 L56.3720588,71.293227 C58.0019168,71.8256826 59.7184488,72.2448144 61.4935967,72.5517333 L61.4935967,77.8960102 L61.4935967,77.8960102 Z M61.4935967,86.7688822 C59.6984471,86.4291882 57.9805262,85.9603384 56.3720588,85.36761 L56.3720588,80.1663767 C58.0019168,80.6988323 59.7184488,81.117964 61.4935967,81.4248829 L61.4935967,86.7688822 L61.4935967,86.7688822 Z M55.2608551,76.0561635 C54.0660333,75.5570384 52.9370503,74.989308 51.8939078,74.3515833 C51.2638553,73.9663376 50.6821402,73.5622046 50.1393172,73.1447394 L50.1393172,68.4587409 C50.1445954,68.4617962 50.1495958,68.4651293 50.1545962,68.4681846 C51.710837,69.419772 53.4259799,70.2360928 55.2608551,70.9085368 L55.2608551,76.0561635 L55.2608551,76.0561635 Z M55.2608551,84.9290354 C54.0657555,84.4301881 52.9370503,83.8624576 51.8939078,83.2244552 C51.2638553,82.8394873 50.6821402,82.4350765 50.1393172,82.0178891 L50.1393172,77.3318906 C50.1445954,77.3349459 50.1495958,77.3382789 50.1545962,77.341612 C51.710837,78.2929216 53.4259799,79.1089648 55.2608551,79.7816865 L55.2608551,84.9290354 L55.2608551,84.9290354 Z M49.0281135,72.2159279 C46.689863,70.0727731 45.4319804,67.6054787 45.4319804,65.0584686 L45.4319804,64.5818417 C46.4231742,65.710081 47.62633,66.7674929 49.0281135,67.7349123 L49.0281135,72.2159279 L49.0281135,72.2159279 Z M49.0281135,81.0890776 C46.689863,78.9459228 45.4319804,76.4786283 45.4319804,73.9313405 L45.4319804,73.4549913 C46.4231742,74.5832307 47.62633,75.6403648 49.0281135,76.608062 L49.0281135,81.0890776 L49.0281135,81.0890776 Z M44.2046559,41.5823689 C46.0381421,40.946033 47.7566186,40.1685978 49.3261938,39.2583958 L49.3261938,44.028554 C48.9378282,44.3057531 48.5341834,44.5773971 48.1058144,44.8393198 C46.9084924,45.571481 45.5989388,46.2111499 44.2046559,46.7594376 L44.2046559,41.5823689 L44.2046559,41.5823689 Z M43.0934522,47.1696812 C41.4788732,47.7296345 39.7623413,48.1687646 37.9719143,48.4792943 L37.9719143,43.1302955 C39.744562,42.84893 41.458316,42.4509076 43.0934522,41.9465052 L43.0934522,47.1696812 L43.0934522,47.1696812 Z M43.0934522,51.6843051 C42.5134039,52.9991955 42.1828208,54.3710257 42.1136484,55.7770196 L42.0983693,55.7770196 L42.0983693,56.368637 C40.7790927,56.7752698 39.3992555,57.1046868 37.9719143,57.3521662 L37.9719143,52.0034451 C39.744562,51.7220797 41.458316,51.3240573 43.0934522,50.8193771 L43.0934522,51.6843051 L43.0934522,51.6843051 Z M37.9719143,75.6542526 L37.9719143,70.3055315 C39.3884213,70.0805502 40.7668695,69.780853 42.0983693,69.4128281 L42.0983693,73.9313405 C42.0983693,74.1763201 42.1080923,74.419911 42.123927,74.6629463 C40.796872,75.0731899 39.4084229,75.4051067 37.9719143,75.6542526 L37.9719143,75.6542526 L37.9719143,75.6542526 Z M36.8607106,48.654002 C35.2008501,48.8889824 33.4865405,49.0159162 31.7391727,49.028693 L31.7391727,43.6349756 C33.4787621,43.62331 35.1916826,43.5063752 36.8607106,43.2894489 L36.8607106,48.654002 L36.8607106,48.654002 Z M36.8607106,57.5271516 C35.2008501,57.762132 33.4865405,57.8890659 31.7391727,57.9018426 L31.7391727,52.5078476 C33.4787621,52.4961819 35.1916826,52.3795249 36.8607106,52.1625985 L36.8607106,57.5271516 L36.8607106,57.5271516 Z M36.8607106,66.6780559 C35.2008501,66.9130364 33.4865405,67.040248 31.7391727,67.0527469 L31.7391727,61.6590296 C33.4787621,61.6473639 35.1916826,61.5304292 36.8607106,61.3135028 L36.8607106,66.6780559 L36.8607106,66.6780559 Z M36.8607106,75.829238 C35.2008501,76.0639407 33.4865405,76.1911523 31.7391727,76.2036512 L31.7391727,70.8099339 C33.4787621,70.7982682 35.1916826,70.6813335 36.8607106,70.4644072 L36.8607106,75.829238 L36.8607106,75.829238 Z M37.9719143,61.1546272 C39.3884213,60.9296459 40.7668695,60.6299487 42.0983693,60.2619238 L42.0983693,63.5383175 L42.0983693,65.0584686 L42.0983693,65.5195413 C40.7790927,65.9264519 39.3992555,66.2558689 37.9719143,66.5033483 L37.9719143,61.1546272 L37.9719143,61.1546272 Z M54.5677418,35.0695781 L54.5677418,35.5462051 C54.5677418,38.2804217 53.1173431,40.9221461 50.4373976,43.1702921 L50.4373976,38.58123 C52.0700336,37.5185408 53.4526488,36.3389168 54.5677418,35.0695781 L54.5677418,35.0695781 L54.5677418,35.0695781 Z M14.7955385,36.1128245 C10.6285246,33.5649812 8.33361113,30.2647006 8.33361113,26.8197099 C8.33361113,23.3744413 10.6285246,20.0741607 14.7955385,17.5265952 C19.2184071,14.822376 25.1333444,13.3330557 31.4505375,13.3330557 C37.7680084,13.3330557 43.6829458,14.822376 48.1058144,17.5265952 C52.2728283,20.0741607 54.5677418,23.3744413 54.5677418,26.8197099 C54.5677418,30.2647006 52.2728283,33.5649812 48.1058144,36.1128245 C43.6829458,38.8167659 37.7680084,40.3060863 31.4505375,40.3060863 C25.1333444,40.3060863 19.2184071,38.8167659 14.7955385,36.1128245 L14.7955385,36.1128245 L14.7955385,36.1128245 Z M30.627969,49.0206381 C28.8778232,48.9848077 27.162958,48.8353757 25.5064311,48.5759529 L25.5064311,43.2158439 C27.1729589,43.4552684 28.8861572,43.5935902 30.627969,43.6269208 L30.627969,49.0206381 L30.627969,49.0206381 Z M30.627969,57.8937877 C28.8778232,57.8579574 27.162958,57.7085254 25.5064311,57.4491026 L25.5064311,52.0887158 C27.1729589,52.3281403 28.8861572,52.4667399 30.627969,52.5000704 L30.627969,57.8937877 L30.627969,57.8937877 Z M30.627969,67.0449698 C28.8778232,67.0088617 27.162958,66.8597075 25.5064311,66.6000069 L25.5064311,61.2398979 C27.1729589,61.4793224 28.8861572,61.6176442 30.627969,61.6509747 L30.627969,67.0449698 L30.627969,67.0449698 Z M30.627969,76.1958741 C28.8778232,76.159766 27.162958,76.0106118 25.5064311,75.7511889 L25.5064311,70.3908022 C27.1729589,70.6302267 28.8861572,70.7685485 30.627969,70.801879 L30.627969,76.1958741 L30.627969,76.1958741 Z M24.3952274,48.3840244 C22.6000778,48.0443305 20.8821568,47.5752029 19.2736895,46.9824745 L19.2736895,41.7812412 C20.9038253,42.3136968 22.6200795,42.7328286 24.3952274,43.0394697 L24.3952274,48.3840244 L24.3952274,48.3840244 Z M24.3952274,57.2568964 C22.6000778,56.9172024 20.8821568,56.4483526 19.2736895,55.8556242 L19.2736895,50.6541131 C20.9038253,51.1865687 22.6200795,51.6057005 24.3952274,51.9126194 L24.3952274,57.2568964 L24.3952274,57.2568964 Z M24.3952274,66.4080784 C22.6000778,66.0683845 20.8821568,65.5992569 19.2736895,65.0065285 L19.2736895,59.8052952 C20.9038253,60.3377508 22.6200795,60.7568826 24.3952274,61.0638014 L24.3952274,66.4080784 L24.3952274,66.4080784 Z M24.3952274,75.5589827 C22.6000778,75.2192888 20.8821568,74.750439 19.2736895,74.1577106 L19.2736895,68.9561995 C20.9038253,69.4886551 22.6200795,69.9077869 24.3952274,70.2147057 L24.3952274,75.5589827 L24.3952274,75.5589827 Z M18.1624858,46.5439 C16.967664,46.0447749 15.838681,45.4773222 14.7955385,44.8393198 C14.165486,44.4540741 13.5837709,44.0499411 13.0409479,43.6324759 L13.0409479,38.9467551 C13.0462261,38.9498104 13.0509487,38.9531435 13.0562269,38.9561988 C14.6124677,39.9077862 16.3276106,40.7238293 18.1624858,41.3962733 L18.1624858,46.5439 L18.1624858,46.5439 Z M18.1624858,55.4170496 C16.967664,54.9179246 15.838681,54.3504718 14.7955385,53.7124694 C14.165486,53.3275015 13.5837709,52.9230907 13.0409479,52.5056255 L13.0409479,47.819627 C13.0462261,47.8229601 13.0509487,47.8260154 13.0562269,47.8293484 C14.6124677,48.7806581 16.3276106,49.596979 18.1624858,50.2694229 L18.1624858,55.4170496 L18.1624858,55.4170496 Z M18.1624858,64.5682317 C16.967664,64.0691066 15.838681,63.5013761 14.7955385,62.8636515 C14.165486,62.4784058 13.5837709,62.0742728 13.0409479,61.6568076 L13.0409479,56.9708091 C13.0462261,56.9738644 13.0509487,56.9771974 13.0562269,56.9802527 C14.6124677,57.9318401 16.3276106,58.748161 18.1624858,59.420605 L18.1624858,64.5682317 L18.1624858,64.5682317 Z M18.1624858,73.719136 C16.967664,73.2200109 15.838681,72.6522804 14.7955385,72.0145558 C14.165486,71.6293101 13.5837709,71.2251771 13.0409479,70.8077119 L13.0409479,66.1217134 C13.0462261,66.1250464 13.0509487,66.1281017 13.0562269,66.1314348 C14.6124677,67.0830222 16.3276106,67.8990653 18.1624858,68.5715093 L18.1624858,73.719136 L18.1624858,73.719136 Z M11.9297441,42.7039421 C9.59149374,40.5607873 8.33361113,38.0934929 8.33361113,35.5462051 L8.33361113,35.0695781 C9.32480484,36.1980952 10.5279607,37.2552294 11.9297441,38.2229265 L11.9297441,42.7039421 L11.9297441,42.7039421 Z M11.9297441,51.5770918 C9.59149374,49.4336592 8.33361113,46.9666425 8.33361113,44.4193547 L8.33361113,43.9427278 C9.32480484,45.0709671 10.5279607,46.128379 11.9297441,47.0957984 L11.9297441,51.5770918 L11.9297441,51.5770918 Z M11.9297441,60.7279961 C9.59149374,58.5848413 8.33361113,56.1178246 8.33361113,53.5705368 L8.33361113,53.0939098 C9.32480484,54.2221492 10.5279607,55.2795611 11.9297441,56.2469805 L11.9297441,60.7279961 L11.9297441,60.7279961 Z M11.9297441,69.8791781 C9.59149374,67.7360233 8.33361113,65.2687289 8.33361113,62.7214411 L8.33361113,62.2448141 C9.32480484,63.3733312 10.5279607,64.4304654 11.9297441,65.3978848 L11.9297441,69.8791781 L11.9297441,69.8791781 Z M86.9437731,44.1952068 C82.0041948,41.1751806 75.471706,39.5119858 68.5491847,39.5119858 C64.8233186,39.5119858 61.2135734,39.9980564 57.9013529,40.9138135 L57.9013529,26.8197099 C57.9013529,22.1695417 55.0402811,17.8593452 49.845126,14.6829432 C44.9058255,11.6631948 38.3733367,10 31.4505375,10 C24.5280162,10 17.9955274,11.6631948 13.0562269,14.6829432 C8.06831125,17.7326891 5.21835153,21.8276258 5,26.2650338 L5,62.7214411 C5,67.3716093 7.86107176,71.6818057 13.0562269,74.85793 C17.9955274,77.8779562 24.5280162,79.541151 31.4505375,79.541151 C35.4528155,79.541151 39.3220268,78.9820309 42.8309304,77.9293408 C43.9874156,81.0207499 46.489013,83.826905 50.1545962,86.0681072 C55.0938967,89.0881334 61.6263855,90.7510504 68.5491847,90.7510504 C75.471706,90.7510504 82.0041948,89.0881334 86.9437731,86.0681072 C92.1389282,82.8917052 95,78.5815087 95,73.9313405 L95,56.3316957 C95,51.6815275 92.1389282,47.371331 86.9437731,44.1952068 L86.9437731,44.1952068 L86.9437731,44.1952068 Z" fill="#fff"/></g></svg>