<svg xmlns:dc="http://purl.org/dc/elements/1.1/" xmlns:cc="http://creativecommons.org/ns#" xmlns:rdf="http://www.w3.org/1999/02/22-rdf-syntax-ns#" xmlns:svg="http://www.w3.org/2000/svg" xmlns="http://www.w3.org/2000/svg" xmlns:sodipodi="http://sodipodi.sourceforge.net/DTD/sodipodi-0.dtd" xmlns:inkscape="http://www.inkscape.org/namespaces/inkscape" version="1.1" x="0px" y="0px" viewBox="0 0 512 640" enable-background="new 0 0 512 512" xml:space="preserve"><path d="m 480,511.83051 -447.999999,0 c -17.672,0 -32.00000032203389,-14.312 -32.00000032203389,-32 l 0,-448.000002 C 6.7796611e-7,14.142508 14.328001,-0.1694915 32.000001,-0.1694915 l 319.999999,0 -64,63.9999995 -223.999999,0 0,384.000002 383.999999,0 0,-224 64,-64 0,320 c 0,17.688 -14.328,32 -32,32 z m -352,-128 0,-96 288,-288.0000015 32,0 64,63.9999995 0,32 -288,288.000002 -96,0 z m 144,-112 176,-176.000002 -32,-32 -176,176.000002 32,32 z m -80,16 -32,32 0,32 32,0 32,-32 -32,-32 z" style="" clip-rule="evenodd" fill-rule="evenodd"/>
</svg>