<?xml version="1.0" encoding="UTF-8"?>
<!DOCTYPE svg PUBLIC "-//W3C//DTD SVG 1.1//EN" "http://www.w3.org/Graphics/SVG/1.1/DTD/svg11.dtd">
<!-- Creator: CorelDRAW 2018 (64-Bit) -->
<svg xmlns="http://www.w3.org/2000/svg" xml:space="preserve" width="76.8799mm" height="76.8798mm" version="1.1" style="shape-rendering:geometricPrecision; text-rendering:geometricPrecision; image-rendering:optimizeQuality; fill-rule:evenodd; clip-rule:evenodd"
viewBox="0 0 11129.03 11129.02"
 xmlns:xlink="http://www.w3.org/1999/xlink">
 <defs>
  <style type="text/css">
   <![CDATA[
    .fil1 {fill:black}
    .fil0 {fill:#2B2A29;fill-rule:nonzero}
   ]]>
  </style>
 </defs>
 <g id="Layer_x0020_1">
  <metadata id="CorelCorpID_0Corel-Layer"/>
  <path class="fil0" d="M5564.51 0c1536.57,0 2927.8,622.88 3934.72,1629.79 1006.91,1006.93 1629.81,2398.15 1629.81,3934.72 0,1536.57 -622.9,2927.79 -1629.81,3934.72 -1006.91,1006.91 -2398.15,1629.79 -3934.72,1629.79 -1536.57,0 -2927.79,-622.88 -3934.7,-1629.79 -1006.93,-1006.93 -1629.81,-2398.15 -1629.81,-3934.72 0,-1536.57 622.88,-2927.79 1629.81,-3934.72 1006.91,-1006.91 2398.13,-1629.79 3934.7,-1629.79zm3776.13 1788.38c-966.38,-966.37 -2301.49,-1564.15 -3776.13,-1564.15 -1474.63,0 -2809.74,597.78 -3776.12,1564.15 -966.38,966.38 -1564.16,2301.49 -1564.16,3776.13 0,1474.64 597.78,2809.75 1564.16,3776.13 966.38,966.37 2301.49,1564.15 3776.12,1564.15 1474.64,0 2809.75,-597.78 3776.13,-1564.15 966.38,-966.38 1564.15,-2301.49 1564.15,-3776.13 0,-1474.64 -597.77,-2809.75 -1564.15,-3776.13z"/>
  <polygon class="fil0" points="3499.82,7612.3 7629.22,7612.3 7629.22,7836.54 3499.82,7836.54 "/>
  <polygon class="fil0" points="5676.64,3163.41 5676.64,7724.41 5452.39,7724.41 5452.39,3163.41 "/>
  <path class="fil0" d="M5567.84 2367.33c-419.77,472.55 -2214.49,2676.01 31.62,3498.47 293.12,-110.41 2200.49,-953.37 -31.62,-3498.47zm-6.86 3723.11c-2909.19,-1025.79 -80.73,-3959.05 -72.7,-3967.49l83.24 -87.58 80.99 89.78c2773.42,3074.85 -10.94,3963.04 -18.83,3965.69l-36.6 12.38 -36.1 -12.78z"/>
  <polygon class="fil0" points="5121.78,3257.32 5562.01,3672.17 5993.13,3241.05 6151.71,3399.63 5567.03,3984.31 4968.5,3420.21 "/>
  <polygon class="fil0" points="4940.28,3806.26 5564.02,4394.08 6174.62,3783.47 6333.21,3942.05 5569.04,4706.22 4787,3969.14 "/>
  <polygon class="fil0" points="4702.95,4349.98 5566.67,5163.98 6411.96,4318.69 6570.54,4477.27 5571.69,5476.12 4549.66,4512.88 "/>
  <path class="fil1" d="M6908.06 9004.69c-3.68,-3.05 -1.11,-1.48 2.24,-16.33 1.13,-4.83 2.24,-10.9 3.68,-16.68 2.61,-10.32 5.07,-21.53 7.54,-33.28 3.63,-17.31 44.04,-188.85 44.04,-196.97 0,-27.08 -21.97,-44.14 -42.92,-60.9l-154.1 -135.09c-3.63,-3.53 -12.42,-10.9 -14.35,-13.49 75.56,-6.28 160.32,-16.29 235.58,-22.12 25.69,-1.97 45.34,-1.69 60.32,-26.77 4.94,-8.34 8.87,-20.18 13.04,-29.6l77.19 -180.51c3.05,-7.17 11.88,-25.46 12.48,-32.06l106.37 242.18c12.29,20.63 28.26,25.03 58.53,26.68 43.46,2.43 114.63,12.33 157.69,14.77 26.87,1.48 53.91,5.28 79.65,7.44l-138.75 122.65c-13.51,10.81 -58.71,47.9 -66.46,63.27 -10.73,21.4 -4.85,32.17 0.22,54.31l51.94 228.01c0.13,0.36 0.39,1.03 0.49,1.35 0.13,0.28 0.3,0.9 0.58,1.3l-1.56 2.16c-0.59,0 -1.13,-1.49 -1.3,-1.17 -0.19,0.45 -1.17,-1.07 -2.03,-1.71l-11.44 -7.08c-5.47,-3.27 -9.81,-5.88 -15.11,-9.02l-180.96 -108.22c-42.47,-25.78 -56.2,-9.41 -101,17.4 -15.07,8.98 -172.48,101.59 -181.59,109.48zm-227.99 -485.03l0 -1.03c0.22,-23.28 23.49,-44.54 51.92,-45.98l268.77 -24.13c0.62,-7.44 12.33,-31.17 15.88,-39.74 16.01,-38.2 87.94,-212.84 99.57,-226.69 19.64,-23.47 58.61,-23.1 77.66,1.03 7.8,9.81 12.29,23.41 17.72,36.06 7.59,17.7 96.21,220.68 96.92,229.34 14.26,0 31.17,2.92 46.28,3.78l45.89 4.17c52.74,6.76 127.59,11.2 180.07,16.42 26.14,2.59 48.48,20.93 48.48,49.83 0,33.71 -21.08,42.46 -48.67,68.12l-175.66 152.47 48.35 211.15c9.11,43.86 27.45,78.39 -1.43,106.38 -27.4,26.51 -53.56,10.63 -72.97,-0.45l-224.19 -133.55c-10.99,5.78 -21.35,12.55 -32.57,19.33 -11.44,6.86 -21.66,13.04 -32.43,19.5l-128.88 76.88c-33.96,20.44 -69.92,51.56 -104.23,17.36 -22.34,-22.29 -14.68,-44.95 -8.16,-72.31l56.01 -244.28 -176.56 -153.42c-29.24,-26.01 -47.54,-35.31 -47.76,-70.24z"/>
  <path class="fil1" d="M5335.6 9004.69c-3.68,-3.05 -1.11,-1.48 2.24,-16.33 1.13,-4.83 2.24,-10.9 3.68,-16.68 2.61,-10.32 5.07,-21.53 7.54,-33.28 3.63,-17.31 44.04,-188.85 44.04,-196.97 0,-27.08 -21.97,-44.14 -42.92,-60.9l-154.1 -135.09c-3.63,-3.53 -12.42,-10.9 -14.35,-13.49 75.56,-6.28 160.32,-16.29 235.58,-22.12 25.69,-1.97 45.34,-1.69 60.32,-26.77 4.94,-8.34 8.87,-20.18 13.04,-29.6l77.19 -180.51c3.05,-7.17 11.88,-25.46 12.48,-32.06l106.37 242.18c12.29,20.63 28.26,25.03 58.53,26.68 43.46,2.43 114.63,12.33 157.69,14.77 26.87,1.48 53.91,5.28 79.65,7.44l-138.75 122.65c-13.51,10.81 -58.71,47.9 -66.46,63.27 -10.73,21.4 -4.85,32.17 0.22,54.31l51.94 228.01c0.13,0.36 0.39,1.03 0.49,1.35 0.13,0.28 0.3,0.9 0.58,1.3l-1.56 2.16c-0.59,0 -1.13,-1.49 -1.3,-1.17 -0.19,0.45 -1.17,-1.07 -2.03,-1.71l-11.44 -7.08c-5.47,-3.27 -9.81,-5.88 -15.11,-9.02l-180.96 -108.22c-42.47,-25.78 -56.2,-9.41 -101,17.4 -15.07,8.98 -172.48,101.59 -181.59,109.48zm-227.99 -485.03l0 -1.03c0.22,-23.28 23.49,-44.54 51.92,-45.98l268.77 -24.13c0.62,-7.44 12.33,-31.17 15.88,-39.74 16.01,-38.2 87.94,-212.84 99.57,-226.69 19.64,-23.47 58.61,-23.1 77.66,1.03 7.8,9.81 12.29,23.41 17.72,36.06 7.59,17.7 96.21,220.68 96.92,229.34 14.26,0 31.17,2.92 46.28,3.78l45.89 4.17c52.74,6.76 127.59,11.2 180.07,16.42 26.14,2.59 48.48,20.93 48.48,49.83 0,33.71 -21.08,42.46 -48.67,68.12l-175.66 152.47 48.35 211.15c9.11,43.86 27.45,78.39 -1.43,106.38 -27.4,26.51 -53.56,10.63 -72.97,-0.45l-224.19 -133.55c-10.99,5.78 -21.35,12.55 -32.57,19.33 -11.44,6.86 -21.66,13.04 -32.43,19.5l-128.88 76.88c-33.96,20.44 -69.92,51.56 -104.23,17.36 -22.34,-22.29 -14.68,-44.95 -8.16,-72.31l56.01 -244.28 -176.56 -153.42c-29.24,-26.01 -47.54,-35.31 -47.76,-70.24z"/>
  <path class="fil1" d="M3913.38 9004.69c-3.68,-3.05 -1.11,-1.48 2.24,-16.33 1.13,-4.83 2.24,-10.9 3.68,-16.68 2.61,-10.32 5.07,-21.53 7.54,-33.28 3.63,-17.31 44.04,-188.85 44.04,-196.97 0,-27.08 -21.97,-44.14 -42.92,-60.9l-154.1 -135.09c-3.63,-3.53 -12.42,-10.9 -14.35,-13.49 75.56,-6.28 160.32,-16.29 235.58,-22.12 25.69,-1.97 45.34,-1.69 60.32,-26.77 4.94,-8.34 8.87,-20.18 13.04,-29.6l77.19 -180.51c3.05,-7.17 11.88,-25.46 12.48,-32.06l106.37 242.18c12.29,20.63 28.26,25.03 58.53,26.68 43.46,2.43 114.63,12.33 157.69,14.77 26.87,1.48 53.91,5.28 79.65,7.44l-138.75 122.65c-13.51,10.81 -58.71,47.9 -66.46,63.27 -10.73,21.4 -4.85,32.17 0.22,54.31l51.94 228.01c0.13,0.36 0.39,1.03 0.49,1.35 0.13,0.28 0.3,0.9 0.58,1.3l-1.56 2.16c-0.59,0 -1.13,-1.49 -1.3,-1.17 -0.19,0.45 -1.17,-1.07 -2.03,-1.71l-11.44 -7.08c-5.47,-3.27 -9.81,-5.88 -15.11,-9.02l-180.96 -108.22c-42.47,-25.78 -56.2,-9.41 -101,17.4 -15.07,8.98 -172.48,101.59 -181.59,109.48zm-227.99 -485.03l0 -1.03c0.22,-23.28 23.49,-44.54 51.92,-45.98l268.77 -24.13c0.62,-7.44 12.33,-31.17 15.88,-39.74 16.01,-38.2 87.94,-212.84 99.57,-226.69 19.64,-23.47 58.61,-23.1 77.66,1.03 7.8,9.81 12.29,23.41 17.72,36.06 7.59,17.7 96.21,220.68 96.92,229.34 14.26,0 31.17,2.92 46.28,3.78l45.89 4.17c52.74,6.76 127.59,11.2 180.07,16.42 26.14,2.59 48.48,20.93 48.48,49.83 0,33.71 -21.08,42.46 -48.67,68.12l-175.66 152.47 48.35 211.15c9.11,43.86 27.45,78.39 -1.43,106.38 -27.4,26.51 -53.56,10.63 -72.97,-0.45l-224.19 -133.55c-10.99,5.78 -21.35,12.55 -32.57,19.33 -11.44,6.86 -21.66,13.04 -32.43,19.5l-128.88 76.88c-33.96,20.44 -69.92,51.56 -104.23,17.36 -22.34,-22.29 -14.68,-44.95 -8.16,-72.31l56.01 -244.28 -176.56 -153.42c-29.24,-26.01 -47.54,-35.31 -47.76,-70.24z"/>
 </g>
</svg>
