<?xml version="1.0" encoding="UTF-8"?>
<!DOCTYPE svg PUBLIC "-//W3C//DTD SVG 1.1//EN" "http://www.w3.org/Graphics/SVG/1.1/DTD/svg11.dtd">
<!-- Creator: CorelDRAW 2018 (64-Bit) -->
<svg xmlns="http://www.w3.org/2000/svg" xml:space="preserve" width="12.9593mm" height="12.9593mm" version="1.1" style="shape-rendering:geometricPrecision; text-rendering:geometricPrecision; image-rendering:optimizeQuality; fill-rule:evenodd; clip-rule:evenodd"
viewBox="0 0 165.77 165.77"
 xmlns:xlink="http://www.w3.org/1999/xlink">
 <defs>
  <style type="text/css">
   <![CDATA[
    .fil0 {fill:#2B2A2A;fill-rule:nonzero}
   ]]>
  </style>
 </defs>
 <g id="Layer_x0020_1">
  <metadata id="CorelCorpID_0Corel-Layer"/>
  <path class="fil0" d="M82.88 0c22.89,0 43.61,9.28 58.61,24.28 15,15 24.28,35.72 24.28,58.61 0,22.89 -9.28,43.61 -24.28,58.61 -15,15 -35.72,24.28 -58.61,24.28 -22.89,0 -43.61,-9.28 -58.61,-24.28 -15,-15 -24.28,-35.72 -24.28,-58.61 0,-22.89 9.28,-43.61 24.28,-58.61 15,-15 35.72,-24.28 58.61,-24.28zm52.28 30.61c-13.38,-13.38 -31.86,-21.65 -52.28,-21.65 -20.42,0 -38.9,8.28 -52.28,21.65 -13.38,13.38 -21.65,31.86 -21.65,52.28 0,20.42 8.28,38.9 21.65,52.28 13.38,13.38 31.86,21.65 52.28,21.65 20.42,0 38.9,-8.28 52.28,-21.65 13.38,-13.38 21.65,-31.86 21.65,-52.28 0,-20.42 -8.28,-38.9 -21.65,-52.28z"/>
  <polygon class="fil0" points="88.92,23.64 87.3,84.74 55.87,117.33 49.43,111.14 78.47,81.03 80,23.43 "/>
 </g>
</svg>
