<svg xmlns="http://www.w3.org/2000/svg" xmlns:xlink="http://www.w3.org/1999/xlink" version="1.1" x="0px" y="0px" viewBox="0 0 90 112.5" enable-background="new 0 0 90 90" xml:space="preserve"><path d="M53,47.4c3.9-2.6,6.5-7.1,6.5-12.1c0-8-6.5-14.5-14.5-14.5s-14.5,6.5-14.5,14.5c0,5.1,2.6,9.5,6.5,12.1  c-8.9,3.3-15.2,11.8-15.2,21.8h3.9c0-10.7,8.7-19.4,19.4-19.4c10.7,0,19.4,8.7,19.4,19.4h3.9C68.3,59.2,61.9,50.7,53,47.4z M45,46  c-5.9,0-10.7-4.8-10.7-10.7S39.1,24.7,45,24.7s10.7,4.8,10.7,10.7S50.9,46,45,46z"/></svg>