<?xml version="1.0" encoding="UTF-8"?>
<!DOCTYPE svg PUBLIC "-//W3C//DTD SVG 1.1//EN" "http://www.w3.org/Graphics/SVG/1.1/DTD/svg11.dtd">
<!-- Creator: CorelDRAW 2018 (64-Bit) -->
<svg xmlns="http://www.w3.org/2000/svg" xml:space="preserve" width="76.8801mm" height="76.8798mm" version="1.1" style="shape-rendering:geometricPrecision; text-rendering:geometricPrecision; image-rendering:optimizeQuality; fill-rule:evenodd; clip-rule:evenodd"
viewBox="0 0 1168.03 1168.03"
 xmlns:xlink="http://www.w3.org/1999/xlink">
 <defs>
  <style type="text/css">
   <![CDATA[
    .fil1 {fill:white}
    .fil0 {fill:#2B2A29;fill-rule:nonzero}
   ]]>
  </style>
 </defs>
 <g id="Layer_x0020_1">
  <metadata id="CorelCorpID_0Corel-Layer"/>
  <path class="fil0" d="M584.02 0c161.27,0 307.28,65.37 412.96,171.05 105.68,105.68 171.05,251.69 171.05,412.96 0,161.27 -65.38,307.28 -171.05,412.96 -105.68,105.68 -251.69,171.05 -412.96,171.05 -161.27,0 -307.28,-65.37 -412.96,-171.05 -105.68,-105.68 -171.05,-251.69 -171.05,-412.96 0,-161.27 65.37,-307.28 171.05,-412.96 105.68,-105.68 251.69,-171.05 412.96,-171.05zm396.32 187.7c-101.43,-101.42 -241.55,-164.16 -396.32,-164.16 -154.77,0 -294.89,62.74 -396.32,164.16 -101.43,101.43 -164.16,241.55 -164.16,396.32 0,154.77 62.74,294.89 164.16,396.32 101.42,101.42 241.55,164.16 396.32,164.16 154.77,0 294.89,-62.74 396.32,-164.16 101.43,-101.43 164.16,-241.55 164.16,-396.32 0,-154.77 -62.74,-294.89 -164.16,-396.32z"/>
  <path class="fil0" d="M304.69 407.27c0.65,-0.12 227.42,-43.58 249.33,150.38l0.48 4.25 -3.88 1.87c-0.64,0.31 -223.84,111.59 -250.89,-149.93l-0.58 -5.57 5.54 -1.01zm236.7 147.42c-21.1,-159.05 -195.27,-141.36 -228.94,-136.42 25.63,217.59 200.36,149.14 228.94,136.42z"/>
  <path class="fil0" d="M604.6 252.98c0.43,0.54 152.78,187.09 -14.29,303.34l-3.24 2.25 -3.38 -2.06c-0.52,-0.32 -183.76,-108.79 11.91,-304.06l4.77 -4.76 4.23 5.28zm-17.96 291.02c135.4,-97.72 35.1,-247.78 12.69,-278.02 -161.85,165.87 -35.45,262.69 -12.69,278.02z"/>
  <path class="fil0" d="M878.15 428.58c-0.27,0.68 -93.55,235.44 -252.65,142.2 -2.9,0.41 -5.34,-1.07 -7.28,-4.25 -2.56,-4.2 -3.19,-15.12 -0.89,-29.23 2.13,-13.1 6.66,-29.7 14.29,-46.88 28.09,-63.23 97.78,-134.32 243.35,-69.65l5.39 2.39 -2.21 5.42zm-248.92 130.39c134.71,81.56 220.53,-95.76 235.36,-129.51 -132.77,-56.49 -196.27,8.13 -221.92,65.85 -7.15,16.09 -11.39,31.65 -13.39,43.94 -1.44,8.88 -1.82,15.55 -1.31,18.96l1.26 0.76z"/>
  <path class="fil0" d="M862.67 765.66c-0.65,0.1 -228.2,39.3 -246.46,-155.05l-0.4 -4.25 3.89 -1.8c0.65,-0.3 225.92,-107.38 248.05,154.62l0.47 5.58 -5.55 0.9zm-233.92 -151.84c18.11,159.42 192.59,144.99 226.33,140.69 -21.54,-218.07 -197.59,-152.85 -226.33,-140.69z"/>
  <path class="fil0" d="M572.55 915.2c-0.43,-0.5 -149.92,-173.68 3.7,-289.53 0.97,-3.35 3.71,-5.03 7.92,-5.12 5.17,-0.11 14.85,4.75 25.74,13.66 10.11,8.28 21.95,20.33 32.79,35.33 40.62,56.18 67.27,153.2 -61.99,246.65l-4.54 3.28 -3.63 -4.28zm12.94 -281.34c-132.64,97.81 -28.48,242.28 -7.26,269.13 115.98,-86.57 91.78,-175.01 54.65,-226.37 -10.1,-13.98 -21.18,-25.25 -30.65,-33.01 -6.89,-5.64 -12.46,-9.26 -15.74,-10.49l-1 0.74z"/>
  <path class="fil0" d="M290.1 733.65c0.33,-0.66 115.34,-230.38 256.81,-136.34 5.94,2.43 9.07,12.16 8.26,26.05 -0.79,13.63 -4.77,32.3 -12.91,51.67 -8.14,19.36 -20.47,39.58 -37.99,56.41 -40.1,38.51 -106.84,59.05 -211.3,10.46l-5.71 -2.66 2.84 -5.58zm250.82 -125.79c-118.02,-79.35 -218.78,92.03 -237.04,125.66 95.3,42.49 155.77,23.96 191.99,-10.82 16.16,-15.52 27.6,-34.31 35.19,-52.37 7.59,-18.06 11.29,-35.24 12.01,-47.63 0.49,-8.49 0.53,-13.83 0.11,-13.91l-1.23 -0.23 -1.03 -0.69z"/>
  <circle class="fil1" cx="584.02" cy="584.02" r="74.27"/>
  <path class="fil0" d="M584.02 503.67c22.18,0 42.27,8.99 56.81,23.53 14.54,14.54 23.53,34.63 23.53,56.81 0,22.18 -8.99,42.27 -23.53,56.81 -14.54,14.54 -34.63,23.53 -56.81,23.53 -22.18,0 -42.28,-8.99 -56.82,-23.53 -14.54,-14.54 -23.53,-34.63 -23.53,-56.81 0,-22.19 8.99,-42.28 23.53,-56.81 14.54,-14.54 34.63,-23.53 56.82,-23.53zm48.22 32.13c-12.34,-12.34 -29.39,-19.97 -48.22,-19.97 -18.83,0 -35.88,7.63 -48.22,19.97 -12.34,12.34 -19.97,29.39 -19.97,48.22 0,18.83 7.63,35.88 19.97,48.22 12.34,12.34 29.39,19.97 48.22,19.97 18.83,0 35.88,-7.63 48.22,-19.97 12.34,-12.34 19.97,-29.39 19.97,-48.22 0,-18.83 -7.63,-35.88 -19.97,-48.22z"/>
 </g>
</svg>
