<?xml version="1.0" encoding="UTF-8"?>
<!DOCTYPE svg PUBLIC "-//W3C//DTD SVG 1.1//EN" "http://www.w3.org/Graphics/SVG/1.1/DTD/svg11.dtd">
<!-- Creator: CorelDRAW 2018 (64-Bit) -->
<svg xmlns="http://www.w3.org/2000/svg" xml:space="preserve" width="76.8801mm" height="76.8798mm" version="1.1" style="shape-rendering:geometricPrecision; text-rendering:geometricPrecision; image-rendering:optimizeQuality; fill-rule:evenodd; clip-rule:evenodd"
viewBox="0 0 1168.03 1168.03"
 xmlns:xlink="http://www.w3.org/1999/xlink">
 <defs>
  <style type="text/css">
   <![CDATA[
    .str0 {stroke:#2B2A29;stroke-width:7.6;stroke-miterlimit:22.9256}
    .fil1 {fill:none}
    .fil2 {fill:white}
    .fil0 {fill:#2B2A29;fill-rule:nonzero}
   ]]>
  </style>
 </defs>
 <g id="Layer_x0020_1">
  <metadata id="CorelCorpID_0Corel-Layer"/>
  <path class="fil0" d="M584.02 0c161.27,0 307.28,65.37 412.96,171.05 105.68,105.68 171.05,251.69 171.05,412.96 0,161.27 -65.38,307.28 -171.05,412.96 -105.68,105.68 -251.69,171.05 -412.96,171.05 -161.27,0 -307.28,-65.37 -412.96,-171.05 -105.68,-105.68 -171.05,-251.69 -171.05,-412.96 0,-161.27 65.37,-307.28 171.05,-412.96 105.68,-105.68 251.69,-171.05 412.96,-171.05zm396.32 187.7c-101.43,-101.42 -241.55,-164.16 -396.32,-164.16 -154.77,0 -294.89,62.74 -396.32,164.16 -101.43,101.43 -164.16,241.55 -164.16,396.32 0,154.77 62.74,294.89 164.16,396.32 101.42,101.42 241.55,164.16 396.32,164.16 154.77,0 294.89,-62.74 396.32,-164.16 101.43,-101.43 164.16,-241.55 164.16,-396.32 0,-154.77 -62.74,-294.89 -164.16,-396.32z"/>
  <path class="fil1 str0" d="M305.76 413.23c0,0 221.06,-42.34 242.23,145.08 0,0 -216.08,107.73 -242.23,-145.08z"/>
  <path class="fil1 str0" d="M599.87 256.75c0,0 148.66,182.07 -13.03,294.59 0,0 -177.12,-104.83 13.03,-294.59z"/>
  <path class="fil1 str0" d="M872.52 426.3c0,0 -91.92,231.38 -246.42,137.84 -18.09,11.05 14.15,-241.03 246.42,-137.84z"/>
  <path class="fil1 str0" d="M861.7 759.67c0,0 -221.81,38.18 -239.46,-149.61 0,0 218.06,-103.65 239.46,149.61z"/>
  <path class="fil1 str0" d="M577.18 911.28c0,0 -147.08,-170.37 4.73,-282.32 -0.5,-23.62 201.24,133.4 -4.73,282.32z"/>
  <path class="fil1 str0" d="M295.51 736.39c0,0 112.68,-225.06 248.77,-133.55 21.1,4.02 -18.32,240.75 -248.77,133.55z"/>
  <circle class="fil2 str0" cx="584.02" cy="584.02" r="74.27"/>
 </g>
</svg>
